<svg width="410" height="437" viewBox="0 0 410 437" fill="none" xmlns="http://www.w3.org/2000/svg">
<path d="M184.619 25.5505C185.981 30.8671 185.315 21.0786 187.987 9.09394C190.66 -2.89075 195.228 1.97865 195.228 1.97865" stroke="#263238" stroke-linecap="round" stroke-linejoin="round"/>
<path d="M183.782 13.3075L192.162 9.92871" stroke="#263238" stroke-linecap="round" stroke-linejoin="round"/>
<path d="M199.091 5.87416C199.091 5.87416 194.048 16.0701 201.622 20.4128" stroke="#263238" stroke-linecap="round" stroke-linejoin="round"/>
<path d="M206.19 2.97238C206.19 2.97238 214.449 7.49397 209.276 17.2924" stroke="#263238" stroke-linecap="round" stroke-linejoin="round"/>
<path d="M200.523 9.32249L206.442 13.5857" stroke="#263238" stroke-linecap="round" stroke-linejoin="round"/>
<path d="M205.171 7.45427L200.533 14.7186" stroke="#263238" stroke-linecap="round" stroke-linejoin="round"/>
<path d="M24.7995 265.741C24.7995 265.741 10.7518 265.542 10.6812 277.487" stroke="#263238" stroke-linecap="round" stroke-linejoin="round"/>
<path d="M23.6297 273.274C23.3372 271.515 17.226 269.299 16.1671 273.89C15.1082 278.481 22.7019 275.728 25.0516 273.582C25.0516 273.582 20.6951 277.756 22.0262 278.928" stroke="#263238" stroke-linecap="round" stroke-linejoin="round"/>
<path d="M24.4869 280.23C24.4869 280.23 22.6415 282.507 20.6447 281.423" stroke="#263238" stroke-linecap="round" stroke-linejoin="round"/>
<path d="M36.78 272.28L26.2416 282.824C26.2416 282.824 31.5461 277.527 34.6219 279.236C38.454 281.303 33.4823 286.968 29.388 282.913" stroke="#263238" stroke-linecap="round" stroke-linejoin="round"/>
<path d="M42.1047 275.122C42.1047 275.122 44.8981 287.733 30.4772 288.18" stroke="#263238" stroke-linecap="round" stroke-linejoin="round"/>
<path d="M230.242 60.7394L235.324 61.5642L235.395 72.9427L246.528 52.9384L264.095 55.7805" stroke="#263238" stroke-linecap="round" stroke-linejoin="round"/>
<path d="M248.454 61.7033L256.179 75.1389" stroke="#263238" stroke-linecap="round" stroke-linejoin="round"/>
<path d="M258.166 63.2735L244.34 73.221" stroke="#263238" stroke-linecap="round" stroke-linejoin="round"/>
<path d="M160.789 80.9921C159.489 79.3624 151.996 80.5251 153.518 85.7522C155.041 90.9794 161.233 84.0132 162.413 80.5251C162.413 80.5251 160.346 87.1932 162.413 87.6404" stroke="#263238" stroke-linecap="round" stroke-linejoin="round"/>
<path d="M166.528 75.616L164.854 81.4791C164.854 81.4791 165.691 78.4978 167.163 78.4978C168.968 78.4978 168.313 81.4791 166.003 80.863" stroke="#263238" stroke-linecap="round" stroke-linejoin="round"/>
<path d="M307.792 147.882L304.262 160.453L311.977 168.781" stroke="#263238" stroke-linecap="round" stroke-linejoin="round"/>
<path d="M312.209 152.99L321.043 160.274" stroke="#263238" stroke-linecap="round" stroke-linejoin="round"/>
<path d="M318.29 151.201L314.468 160.453" stroke="#263238" stroke-linecap="round" stroke-linejoin="round"/>
<path d="M324.502 159.26C324.502 159.26 324.582 161.884 323.433 162.242" stroke="#263238" stroke-linecap="round" stroke-linejoin="round"/>
<path d="M325.621 150.098L330.956 154.003" stroke="#263238" stroke-linecap="round" stroke-linejoin="round"/>
<path d="M332.932 146.888L327.668 165.571" stroke="#263238" stroke-linecap="round" stroke-linejoin="round"/>
<path d="M333.195 140.399L341.746 149.939L338.106 160.373" stroke="#263238" stroke-linecap="round" stroke-linejoin="round"/>
<path d="M97.6804 386.572L110.054 350.28L125.06 366.786L97.6804 386.572Z" stroke="#263238" stroke-linecap="round" stroke-linejoin="round"/>
<path d="M121.379 369.44L118.213 365.872L121.591 362.99" stroke="#263238" stroke-linecap="round" stroke-linejoin="round"/>
<path d="M24.5414 182.67C30.9682 180.047 34.0202 172.787 31.3581 166.453C28.696 160.12 21.328 157.113 14.9012 159.736C8.47435 162.359 5.42242 169.62 8.0845 175.953C10.7466 182.286 18.1146 185.294 24.5414 182.67Z" stroke="#263238" stroke-linecap="round" stroke-linejoin="round"/>
<path d="M33.6941 174.107C41.4135 174.107 47.6712 167.94 47.6712 160.334C47.6712 152.727 41.4135 146.56 33.6941 146.56C25.9747 146.56 19.7169 152.727 19.7169 160.334C19.7169 167.94 25.9747 174.107 33.6941 174.107Z" stroke="#263238" stroke-linecap="round" stroke-linejoin="round"/>
<path d="M22.1978 159.032L20.4935 164.865" stroke="#263238" stroke-linecap="round" stroke-linejoin="round"/>
<path d="M24.608 159.757L22.1978 168.164" stroke="#263238" stroke-linecap="round" stroke-linejoin="round"/>
<path d="M27.1391 161.168L24.6079 170.679" stroke="#263238" stroke-linecap="round" stroke-linejoin="round"/>
<path d="M29.9528 163.961L28.1476 172.984" stroke="#263238" stroke-linecap="round" stroke-linejoin="round"/>
<path d="M31.536 166.902L29.9528 173.61" stroke="#263238" stroke-linecap="round" stroke-linejoin="round"/>
<path d="M7.67606 155.295C6.57685 154.967 3.56157 157.79 5.90118 159.688C8.2408 161.586 8.83578 156.527 8.26096 154.59C8.26096 154.59 9.44085 158.237 10.5098 157.799" stroke="#263238" stroke-linecap="round" stroke-linejoin="round"/>
<path d="M23.9323 139.365L27.9661 146.6C27.9661 146.6 25.9492 142.983 27.3711 141.631C29.1056 139.962 31.4049 143.489 28.5006 144.97" stroke="#263238" stroke-linecap="round" stroke-linejoin="round"/>
<path d="M97.6401 138.501L103.338 143.817" stroke="#263238" stroke-linecap="round" stroke-linejoin="round"/>
<path d="M103.338 137.119L98.5679 144.135" stroke="#263238" stroke-linecap="round" stroke-linejoin="round"/>
<path d="M108.945 139.137L114.643 137.04" stroke="#263238" stroke-linecap="round" stroke-linejoin="round"/>
<path d="M117.376 131.187L120.845 134.208" stroke="#263238" stroke-linecap="round" stroke-linejoin="round"/>
<path d="M123.497 127.55L119.11 142.396" stroke="#263238" stroke-linecap="round" stroke-linejoin="round"/>
<path d="M372.544 124.568L372.302 113.22H381.005C381.005 113.22 376.185 115.843 378.403 121.945C380.622 128.046 384.192 124.568 384.192 124.568" stroke="#263238" stroke-linecap="round" stroke-linejoin="round"/>
<path d="M357.801 318.162L367.704 311.444L380.814 312.348L381.631 328.725L372.01 335.513L360.13 334.658L357.801 318.162Z" stroke="#263238" stroke-linecap="round" stroke-linejoin="round"/>
<path d="M360.13 334.658L369.711 327.861L381.631 328.725" stroke="#263238" stroke-linecap="round" stroke-linejoin="round"/>
<path d="M369.721 327.861L367.704 311.444" stroke="#263238" stroke-linecap="round" stroke-linejoin="round"/>
<path d="M357.801 318.162L370.88 319.652L380.814 312.348" stroke="#263238" stroke-linecap="round" stroke-linejoin="round"/>
<path d="M370.88 319.652L372.01 335.513" stroke="#263238" stroke-linecap="round" stroke-linejoin="round"/>
<path d="M359.606 195.155L359.182 216.988L378.595 208.302L359.606 195.155Z" stroke="#263238" stroke-linecap="round" stroke-linejoin="round"/>
<path d="M359.606 195.155L368.854 212.536" stroke="#263238" stroke-linecap="round" stroke-linejoin="round"/>
<path d="M367.371 209.743L369.62 208.67L371.133 211.641" stroke="#263238" stroke-linecap="round" stroke-linejoin="round"/>
<path d="M190.347 193.088L198.375 201.564" stroke="#263238" stroke-linecap="round" stroke-linejoin="round"/>
<path d="M198.435 191.945L191.688 201.048" stroke="#263238" stroke-linecap="round" stroke-linejoin="round"/>
<path d="M201.723 187.503C202.108 187.327 202.548 187.308 202.947 187.452C203.346 187.595 203.671 187.889 203.85 188.268C203.914 188.404 203.958 188.548 203.982 188.695C204.375 190.603 201.198 193.088 201.198 193.088H205.726" stroke="#263238" stroke-linecap="round" stroke-linejoin="round"/>
<path d="M65.3697 66.0759C65.7539 61.2608 67.3635 56.6188 70.0497 52.5787C72.7359 48.5387 76.412 45.231 80.7385 42.9611" stroke="#263238" stroke-linecap="round" stroke-linejoin="round"/>
<path d="M87.6665 96.3854C80.3116 94.6471 73.9296 90.1611 69.8673 83.874" stroke="#263238" stroke-linecap="round" stroke-linejoin="round"/>
<path d="M123.618 70.6571C122.995 78.2677 119.333 85.3238 113.436 90.2761C107.539 95.2285 99.8883 97.6724 92.1642 97.0711" stroke="#263238" stroke-linecap="round" stroke-linejoin="round"/>
<path d="M96.8132 39.6718C103.453 40.1963 109.712 42.9389 114.555 47.4457C119.398 51.9526 122.535 57.9536 123.446 64.4561" stroke="#263238" stroke-linecap="round" stroke-linejoin="round"/>
<path d="M107.099 90.5322C103.023 92.786 98.4015 93.9055 93.7293 93.771C89.0571 93.6366 84.5098 92.2532 80.5738 89.7688C76.6378 87.2844 73.4611 83.7925 71.3834 79.6665C69.3057 75.5405 68.4052 70.9356 68.7781 66.3442" stroke="#263238" stroke-linecap="round" stroke-linejoin="round"/>
<path d="M70.4321 59.2289C71.789 55.7527 73.9048 52.6129 76.6298 50.0318C79.3548 47.4508 82.6222 45.4916 86.2008 44.293C89.7793 43.0944 93.5815 42.6856 97.3382 43.0957C101.095 43.5058 104.714 44.7247 107.94 46.666C111.165 48.6074 113.918 51.2238 116.004 54.3299C118.09 57.4361 119.457 60.9561 120.009 64.6407C120.561 68.3253 120.284 72.0845 119.198 75.652C118.112 79.2195 116.244 82.5082 113.725 85.2852" stroke="#263238" stroke-linecap="round" stroke-linejoin="round"/>
<path d="M91.9625 50.0863L94.4937 68.3714L108.753 63.9989" stroke="#263238" stroke-linecap="round" stroke-linejoin="round"/>
<path d="M316.837 103.908C312.738 103.947 308.724 102.758 305.326 100.498C301.928 98.2384 299.307 95.0146 297.81 91.254C296.313 87.4933 296.01 83.3732 296.943 79.4394C297.876 75.5057 299.999 71.9439 303.032 69.2261" stroke="#263238" stroke-linecap="round" stroke-linejoin="round"/>
<path d="M335.786 90.4229C334.804 93.2788 333.174 95.877 331.022 98.0205C328.869 100.164 326.25 101.797 323.362 102.795" stroke="#263238" stroke-linecap="round" stroke-linejoin="round"/>
<path d="M309.93 65.1715C314.99 63.4168 320.55 63.7145 325.388 65.9993C330.225 68.2841 333.944 72.3688 335.726 77.355" stroke="#263238" stroke-linecap="round" stroke-linejoin="round"/>
<path d="M326.63 69.395C328.72 70.7871 330.487 72.6 331.814 74.7142C333.142 76.8285 333.999 79.196 334.33 81.6606C334.661 84.1253 334.458 86.6311 333.735 89.0128C333.011 91.3945 331.784 93.598 330.133 95.478C328.482 97.358 326.445 98.8718 324.157 99.9196C321.869 100.967 319.382 101.525 316.859 101.557C314.337 101.588 311.836 101.092 309.522 100.101C307.208 99.1103 305.133 97.6475 303.435 95.809" stroke="#263238" stroke-linecap="round" stroke-linejoin="round"/>
<path d="M299.795 89.8067C298.721 86.7973 298.499 83.5568 299.151 80.4322C299.803 77.3077 301.304 74.4166 303.496 72.0685C305.687 69.7204 308.485 68.0037 311.59 67.1022C314.695 66.2006 317.99 66.1481 321.123 66.9504" stroke="#263238" stroke-linecap="round" stroke-linejoin="round"/>
<path d="M309.829 73.1117L316.646 83.9734L310.434 91.9135" stroke="#263238" stroke-linecap="round" stroke-linejoin="round"/>
<path d="M173.738 381.027C173.728 378.42 174.366 375.851 175.597 373.543C176.828 371.236 178.613 369.26 180.797 367.79" stroke="#263238" stroke-linecap="round" stroke-linejoin="round"/>
<path d="M201.682 392.038C199.759 394.031 197.346 395.501 194.677 396.307C192.008 397.113 189.173 397.226 186.447 396.637C183.72 396.047 181.194 394.775 179.113 392.942C177.031 391.109 175.465 388.778 174.565 386.174" stroke="#263238" stroke-linecap="round" stroke-linejoin="round"/>
<path d="M189.924 365.037C194.227 365.037 198.354 366.722 201.397 369.721C204.44 372.719 206.15 376.786 206.15 381.027" stroke="#263238" stroke-linecap="round" stroke-linejoin="round"/>
<path d="M189.924 395.128C186.128 395.128 182.489 393.642 179.805 390.998C177.121 388.353 175.614 384.767 175.614 381.027" stroke="#263238" stroke-linecap="round" stroke-linejoin="round"/>
<path d="M178.78 372.172C180.107 370.558 181.779 369.251 183.677 368.347C185.575 367.442 187.653 366.962 189.761 366.94C191.869 366.919 193.957 367.356 195.873 368.221C197.79 369.086 199.49 370.358 200.85 371.945C202.211 373.532 203.199 375.396 203.744 377.403C204.289 379.41 204.378 381.511 204.003 383.556C203.629 385.601 202.801 387.539 201.579 389.232C200.357 390.925 198.77 392.331 196.932 393.349" stroke="#263238" stroke-linecap="round" stroke-linejoin="round"/>
<path d="M187.705 390.607L189.924 381.027L186.828 373.196" stroke="#263238" stroke-linecap="round" stroke-linejoin="round"/>
<path d="M1.0001 429.244H409" stroke="#263238" stroke-linecap="round" stroke-linejoin="round"/>
<path d="M208.015 219.691L201.37 344.377L117.174 340.024L117.88 326.808L123.82 215.328L176.834 218.071L208.015 219.691Z" fill="white"/>
<mask id="mask0_1_3058" style="mask-type:luminance" maskUnits="userSpaceOnUse" x="117" y="215" width="92" height="130">
<path d="M208.015 219.691L201.37 344.377L117.174 340.024L117.88 326.808L123.82 215.328L176.834 218.071L208.015 219.691Z" fill="white"/>
</mask>
<g mask="url(#mask0_1_3058)">
<path opacity="0.2" d="M181.735 292.742L162.766 294.282L168.302 317.824L117.88 326.808L123.82 215.328L176.834 218.071L181.735 292.742Z" fill="black" fill-opacity="0.7"/>
</g>
<path d="M208.015 219.691L201.37 344.377L117.174 340.024L117.88 326.808L123.82 215.328L176.834 218.071L208.015 219.691Z" stroke="#263238" stroke-linecap="round" stroke-linejoin="round"/>
<path d="M129.759 223.854L151.673 224.988" stroke="#263238" stroke-width="2" stroke-linecap="round" stroke-linejoin="round"/>
<path d="M129.538 227.998L144.442 228.774" stroke="#263238" stroke-width="2" stroke-linecap="round" stroke-linejoin="round"/>
<path d="M134.358 238.065L197.386 241.325" stroke="#263238" stroke-width="2" stroke-linecap="round" stroke-linejoin="round"/>
<path d="M134.136 242.209L197.164 245.469" stroke="#263238" stroke-width="2" stroke-linecap="round" stroke-linejoin="round"/>
<path d="M133.884 247.049L187.634 249.821" stroke="#263238" stroke-width="2" stroke-linecap="round" stroke-linejoin="round"/>
<path d="M133.906 251.463L133.636 256.515L138.762 256.78L139.032 251.729L133.906 251.463Z" stroke="#263238" stroke-linecap="round" stroke-linejoin="round"/>
<path d="M143.197 251.948L142.928 256.999L148.054 257.265L148.323 252.214L143.197 251.948Z" stroke="#263238" stroke-linecap="round" stroke-linejoin="round"/>
<path d="M152.477 252.434L152.208 257.485L157.334 257.75L157.603 252.699L152.477 252.434Z" stroke="#263238" stroke-linecap="round" stroke-linejoin="round"/>
<path d="M161.768 252.918L161.499 257.97L166.625 258.235L166.894 253.184L161.768 252.918Z" stroke="#263238" stroke-linecap="round" stroke-linejoin="round"/>
<path d="M131 237.886C130.993 238.051 130.954 238.212 130.884 238.362C130.814 238.511 130.715 238.646 130.592 238.757C130.47 238.869 130.326 238.956 130.169 239.013C130.012 239.07 129.846 239.095 129.679 239.089C129.339 239.072 129.02 238.922 128.792 238.673C128.564 238.425 128.446 238.097 128.463 237.762C128.481 237.427 128.632 237.113 128.885 236.889C129.137 236.664 129.47 236.547 129.81 236.565C129.977 236.572 130.14 236.612 130.292 236.682C130.443 236.752 130.579 236.851 130.691 236.973C130.803 237.095 130.89 237.237 130.947 237.392C131.003 237.547 131.028 237.712 131.02 237.876L131 237.886Z" fill="#263238"/>
<path d="M133.067 262.243L196.095 265.503" stroke="#263238" stroke-width="2" stroke-linecap="round" stroke-linejoin="round"/>
<path d="M132.845 266.387L195.874 269.647" stroke="#263238" stroke-width="2" stroke-linecap="round" stroke-linejoin="round"/>
<path d="M132.593 271.227L186.344 273.999" stroke="#263238" stroke-width="2" stroke-linecap="round" stroke-linejoin="round"/>
<path d="M132.604 275.657L132.335 280.708L137.461 280.974L137.73 275.923L132.604 275.657Z" stroke="#263238" stroke-linecap="round" stroke-linejoin="round"/>
<path d="M141.905 276.132L141.636 281.183L146.761 281.449L147.031 276.398L141.905 276.132Z" stroke="#263238" stroke-linecap="round" stroke-linejoin="round"/>
<path d="M151.186 276.607L150.916 281.659L156.042 281.924L156.312 276.873L151.186 276.607Z" stroke="#263238" stroke-linecap="round" stroke-linejoin="round"/>
<path d="M160.467 277.092L160.197 282.143L165.323 282.409L165.593 277.358L160.467 277.092Z" stroke="#263238" stroke-linecap="round" stroke-linejoin="round"/>
<path d="M129.719 262.064C129.711 262.23 129.67 262.393 129.599 262.543C129.527 262.693 129.426 262.828 129.302 262.94C129.177 263.051 129.031 263.138 128.873 263.194C128.714 263.25 128.546 263.275 128.378 263.267C128.123 263.255 127.877 263.169 127.672 263.019C127.467 262.87 127.311 262.663 127.225 262.427C127.139 262.19 127.125 261.934 127.187 261.69C127.248 261.446 127.382 261.225 127.571 261.056C127.759 260.886 127.995 260.776 128.247 260.738C128.499 260.701 128.757 260.738 128.988 260.845C129.219 260.952 129.413 261.124 129.545 261.339C129.677 261.554 129.741 261.803 129.729 262.054L129.719 262.064Z" fill="#263238"/>
<path d="M131.786 286.421L194.805 289.681" stroke="#263238" stroke-width="2" stroke-linecap="round" stroke-linejoin="round"/>
<path d="M131.564 290.565L194.583 293.825" stroke="#263238" stroke-width="2" stroke-linecap="round" stroke-linejoin="round"/>
<path d="M131.302 295.395L185.053 298.177" stroke="#263238" stroke-width="2" stroke-linecap="round" stroke-linejoin="round"/>
<path d="M131.323 299.82L131.054 304.872L136.18 305.137L136.449 300.086L131.323 299.82Z" stroke="#263238" stroke-linecap="round" stroke-linejoin="round"/>
<path d="M141.702 300.275L141.445 305.337L146.582 305.59L146.838 300.528L141.702 300.275Z" stroke="#263238" stroke-width="1.00125" stroke-linecap="round" stroke-linejoin="round"/>
<path d="M149.894 300.791L149.625 305.842L154.751 306.108L155.02 301.057L149.894 300.791Z" stroke="#263238" stroke-linecap="round" stroke-linejoin="round"/>
<path d="M159.196 301.266L158.926 306.317L164.052 306.583L164.322 301.531L159.196 301.266Z" stroke="#263238" stroke-linecap="round" stroke-linejoin="round"/>
<path d="M128.428 286.242C128.421 286.408 128.38 286.571 128.308 286.721C128.236 286.871 128.135 287.006 128.011 287.118C127.886 287.229 127.74 287.316 127.582 287.372C127.423 287.428 127.255 287.453 127.087 287.445C126.745 287.445 126.416 287.311 126.174 287.072C125.932 286.834 125.796 286.51 125.796 286.173C125.796 285.836 125.932 285.512 126.174 285.273C126.416 285.035 126.745 284.901 127.087 284.901H127.269C127.437 284.909 127.602 284.949 127.754 285.019C127.907 285.09 128.044 285.19 128.157 285.312C128.27 285.435 128.358 285.579 128.415 285.735C128.472 285.891 128.497 286.057 128.489 286.223L128.428 286.242Z" fill="#263238"/>
<path d="M130.455 311.285L193.473 314.555" stroke="#263238" stroke-width="2" stroke-linecap="round" stroke-linejoin="round"/>
<path d="M130.233 315.429L193.262 318.698" stroke="#263238" stroke-width="2" stroke-linecap="round" stroke-linejoin="round"/>
<path d="M129.981 320.269L183.732 323.051" stroke="#263238" stroke-width="2" stroke-linecap="round" stroke-linejoin="round"/>
<path d="M129.987 324.697L129.718 329.748L134.844 330.014L135.113 324.962L129.987 324.697Z" stroke="#263238" stroke-linecap="round" stroke-linejoin="round"/>
<path d="M139.29 325.172L139.02 330.223L144.146 330.488L144.416 325.437L139.29 325.172Z" stroke="#263238" stroke-linecap="round" stroke-linejoin="round"/>
<path d="M148.591 325.647L148.321 330.698L153.447 330.964L153.716 325.913L148.591 325.647Z" stroke="#263238" stroke-linecap="round" stroke-linejoin="round"/>
<path d="M157.871 326.142L157.602 331.194L162.728 331.459L162.997 326.408L157.871 326.142Z" stroke="#263238" stroke-linecap="round" stroke-linejoin="round"/>
<path d="M127.097 311.116C127.083 311.365 126.994 311.604 126.842 311.804C126.689 312.003 126.481 312.153 126.242 312.236C126.003 312.318 125.744 312.329 125.499 312.267C125.254 312.205 125.033 312.072 124.864 311.887C124.695 311.701 124.586 311.47 124.55 311.223C124.515 310.976 124.554 310.724 124.663 310.499C124.773 310.274 124.948 310.086 125.165 309.959C125.383 309.832 125.634 309.771 125.887 309.784C126.055 309.793 126.22 309.835 126.372 309.907C126.524 309.978 126.66 310.079 126.772 310.203C126.885 310.326 126.971 310.471 127.027 310.628C127.083 310.784 127.107 310.95 127.097 311.116Z" fill="#263238"/>
<path d="M135.649 253.568L136.314 254.701L139.047 251.729" stroke="#263238" stroke-width="2" stroke-linecap="round" stroke-linejoin="round"/>
<path d="M152.954 278.402L153.619 279.535L156.352 276.563" stroke="#263238" stroke-width="2" stroke-linecap="round" stroke-linejoin="round"/>
<path d="M161.637 303.921L162.302 305.054L165.035 302.073" stroke="#263238" stroke-width="2" stroke-linecap="round" stroke-linejoin="round"/>
<path d="M141.064 326.698L141.73 327.821L144.463 324.85" stroke="#263238" stroke-width="2" stroke-linecap="round" stroke-linejoin="round"/>
<path d="M152.066 309.089L70.8355 331.339L36.9112 211.025L70.5431 201.813L118.142 188.785L148.92 297.939L152.066 309.089Z" fill="white"/>
<mask id="mask1_1_3058" style="mask-type:luminance" maskUnits="userSpaceOnUse" x="36" y="188" width="117" height="144">
<path d="M152.066 309.089L70.8355 331.339L36.9112 211.025L70.5431 201.813L118.142 188.785L148.92 297.939L152.066 309.089Z" fill="white"/>
</mask>
<g mask="url(#mask1_1_3058)">
<path opacity="0.2" d="M148.92 297.939L86.1136 301.944L70.5431 201.813L118.142 188.785L148.92 297.939Z" fill="black" fill-opacity="0.7"/>
</g>
<path d="M152.066 309.089L70.8355 331.339L36.9112 211.025L70.5431 201.813L118.142 188.785L148.92 297.939L152.066 309.089Z" stroke="#263238" stroke-linecap="round" stroke-linejoin="round"/>
<path d="M45.3015 217.246L66.4387 211.462" stroke="#263238" stroke-width="2" stroke-linecap="round" stroke-linejoin="round"/>
<path d="M46.4209 221.251L60.8014 217.316" stroke="#263238" stroke-width="2" stroke-linecap="round" stroke-linejoin="round"/>
<path d="M54.2363 229.28L115.046 212.635" stroke="#263238" stroke-width="2" stroke-linecap="round" stroke-linejoin="round"/>
<path d="M55.3658 233.275L116.176 216.63" stroke="#263238" stroke-width="2" stroke-linecap="round" stroke-linejoin="round"/>
<path d="M56.6768 237.946L108.542 223.745" stroke="#263238" stroke-width="2" stroke-linecap="round" stroke-linejoin="round"/>
<path d="M63.0856 240.773L58.14 242.127L59.5143 247.001L64.4599 245.646L63.0856 240.773Z" stroke="#263238" stroke-linecap="round" stroke-linejoin="round"/>
<path d="M72.0522 238.309L67.1065 239.663L68.4809 244.536L73.4265 243.182L72.0522 238.309Z" stroke="#263238" stroke-linecap="round" stroke-linejoin="round"/>
<path d="M81.021 235.851L76.0754 237.206L77.4497 242.079L82.3953 240.725L81.021 235.851Z" stroke="#263238" stroke-linecap="round" stroke-linejoin="round"/>
<path d="M89.9736 233.402L85.028 234.756L86.4023 239.63L91.348 238.275L89.9736 233.402Z" stroke="#263238" stroke-linecap="round" stroke-linejoin="round"/>
<path d="M50.9992 230.165C51.0902 230.488 51.0472 230.833 50.8798 231.125C50.7125 231.416 50.4344 231.63 50.1067 231.72C49.7791 231.81 49.4288 231.767 49.1328 231.602C48.8368 231.437 48.6194 231.163 48.5285 230.841C48.4376 230.518 48.4805 230.172 48.6479 229.881C48.8153 229.589 49.0934 229.375 49.421 229.285C49.7486 229.196 50.099 229.238 50.3949 229.403C50.6909 229.568 50.9083 229.842 50.9992 230.165Z" fill="#263238"/>
<path d="M60.8115 252.604L121.621 235.958" stroke="#263238" stroke-width="2" stroke-linecap="round" stroke-linejoin="round"/>
<path d="M61.9409 256.609L122.751 239.953" stroke="#263238" stroke-width="2" stroke-linecap="round" stroke-linejoin="round"/>
<path d="M63.262 261.269L115.117 247.069" stroke="#263238" stroke-width="2" stroke-linecap="round" stroke-linejoin="round"/>
<path d="M69.6663 264.091L64.7207 265.445L66.095 270.319L71.0406 268.965L69.6663 264.091Z" stroke="#263238" stroke-linecap="round" stroke-linejoin="round"/>
<path d="M78.6258 261.639L73.6802 262.993L75.0545 267.867L80.0001 266.513L78.6258 261.639Z" stroke="#263238" stroke-linecap="round" stroke-linejoin="round"/>
<path d="M87.5952 259.184L82.6496 260.539L84.0239 265.412L88.9695 264.058L87.5952 259.184Z" stroke="#263238" stroke-linecap="round" stroke-linejoin="round"/>
<path d="M96.5714 256.718L91.6258 258.072L93.0001 262.945L97.9457 261.591L96.5714 256.718Z" stroke="#263238" stroke-linecap="round" stroke-linejoin="round"/>
<path d="M57.5844 253.498C57.6526 253.74 57.6464 253.997 57.5667 254.236C57.4869 254.475 57.3371 254.685 57.1363 254.84C56.9354 254.995 56.6924 255.088 56.4381 255.107C56.1837 255.126 55.9293 255.07 55.707 254.947C55.4848 254.823 55.3046 254.638 55.1892 254.413C55.0739 254.189 55.0285 253.936 55.0589 253.687C55.0893 253.437 55.1941 253.202 55.36 253.011C55.5259 252.82 55.7455 252.682 55.991 252.614C56.1533 252.568 56.323 252.555 56.4905 252.574C56.658 252.594 56.8199 252.646 56.967 252.727C57.1141 252.808 57.2435 252.917 57.3477 253.048C57.4519 253.179 57.5289 253.328 57.5743 253.488L57.5844 253.498Z" fill="#263238"/>
<path d="M67.3966 275.937L128.196 259.282" stroke="#263238" stroke-width="2" stroke-linecap="round" stroke-linejoin="round"/>
<path d="M68.5262 279.932L129.326 263.287" stroke="#263238" stroke-width="2" stroke-linecap="round" stroke-linejoin="round"/>
<path d="M69.8371 284.603L121.702 270.402" stroke="#263238" stroke-width="2" stroke-linecap="round" stroke-linejoin="round"/>
<path d="M76.2376 287.415L71.292 288.769L72.6663 293.642L77.6119 292.288L76.2376 287.415Z" stroke="#263238" stroke-linecap="round" stroke-linejoin="round"/>
<path d="M85.2167 284.957L80.271 286.312L81.6454 291.185L86.591 289.831L85.2167 284.957Z" stroke="#263238" stroke-linecap="round" stroke-linejoin="round"/>
<path d="M94.1661 282.505L89.2205 283.86L90.5948 288.733L95.5404 287.379L94.1661 282.505Z" stroke="#263238" stroke-linecap="round" stroke-linejoin="round"/>
<path d="M103.135 280.051L98.1898 281.405L99.5641 286.279L104.51 284.924L103.135 280.051Z" stroke="#263238" stroke-linecap="round" stroke-linejoin="round"/>
<path d="M64.1595 276.822C64.2277 277.064 64.2215 277.321 64.1417 277.559C64.062 277.798 63.9122 278.008 63.7113 278.163C63.5105 278.318 63.2675 278.411 63.0131 278.43C62.7588 278.449 62.5044 278.393 62.2821 278.27C62.0598 278.147 61.8797 277.961 61.7643 277.737C61.649 277.513 61.6036 277.26 61.634 277.01C61.6644 276.761 61.7691 276.525 61.935 276.334C62.1009 276.143 62.3205 276.005 62.5661 275.937C62.7283 275.892 62.8981 275.878 63.0656 275.898C63.233 275.917 63.395 275.969 63.5421 276.05C63.6892 276.132 63.8186 276.241 63.9228 276.371C64.027 276.502 64.104 276.652 64.1494 276.812L64.1595 276.822Z" fill="#263238"/>
<path d="M74.1634 299.926L134.963 283.281" stroke="#263238" stroke-width="2" stroke-linecap="round" stroke-linejoin="round"/>
<path d="M75.2828 303.931L136.092 287.276" stroke="#263238" stroke-width="2" stroke-linecap="round" stroke-linejoin="round"/>
<path d="M76.6038 308.592L128.469 294.391" stroke="#263238" stroke-width="2" stroke-linecap="round" stroke-linejoin="round"/>
<path d="M83.0054 311.416L78.0598 312.77L79.4341 317.643L84.3798 316.289L83.0054 311.416Z" stroke="#263238" stroke-linecap="round" stroke-linejoin="round"/>
<path d="M91.9743 308.958L87.0287 310.313L88.403 315.186L93.3486 313.832L91.9743 308.958Z" stroke="#263238" stroke-linecap="round" stroke-linejoin="round"/>
<path d="M100.944 306.504L95.998 307.858L97.3723 312.731L102.318 311.377L100.944 306.504Z" stroke="#263238" stroke-linecap="round" stroke-linejoin="round"/>
<path d="M109.903 304.052L104.958 305.406L106.332 310.279L111.277 308.925L109.903 304.052Z" stroke="#263238" stroke-linecap="round" stroke-linejoin="round"/>
<path d="M70.9262 300.811C71.0211 301.135 70.9815 301.483 70.816 301.778C70.6506 302.074 70.3728 302.292 70.0438 302.386C69.7148 302.48 69.3616 302.44 69.0618 302.277C68.7621 302.114 68.5403 301.841 68.4454 301.516C68.3518 301.191 68.3926 300.842 68.5589 300.546C68.7251 300.25 69.0033 300.031 69.3328 299.936C69.6591 299.847 70.0079 299.888 70.304 300.049C70.6002 300.211 70.82 300.481 70.9161 300.801L70.9262 300.811Z" fill="#263238"/>
<path d="M68.8993 241.255L69.8976 242.12L71.5313 238.443" stroke="#263238" stroke-width="2" stroke-linecap="round" stroke-linejoin="round"/>
<path d="M66.4689 267.282L67.4673 268.146L69.0909 264.469" stroke="#263238" stroke-width="2" stroke-linecap="round" stroke-linejoin="round"/>
<path d="M73.044 290.367L74.0424 291.231L75.666 287.554" stroke="#263238" stroke-width="2" stroke-linecap="round" stroke-linejoin="round"/>
<path d="M97.7208 309.278L98.7192 310.142L100.353 306.465" stroke="#263238" stroke-width="2" stroke-linecap="round" stroke-linejoin="round"/>
<path d="M159.999 160.992L76.0789 168.941L88.2017 293.233L172.122 285.285L159.999 160.992Z" fill="white" stroke="#263238" stroke-linecap="round" stroke-linejoin="round"/>
<path d="M83.2294 176.522L105.072 174.455" stroke="#263238" stroke-width="2" stroke-linecap="round" stroke-linejoin="round"/>
<path d="M83.6327 180.657L98.4873 179.245" stroke="#263238" stroke-width="2" stroke-linecap="round" stroke-linejoin="round"/>
<path d="M89.9053 189.908L152.722 183.955" stroke="#263238" stroke-width="2" stroke-linecap="round" stroke-linejoin="round"/>
<path d="M90.3087 194.032L153.125 188.089" stroke="#263238" stroke-width="2" stroke-linecap="round" stroke-linejoin="round"/>
<path d="M90.7826 198.852L144.362 193.783" stroke="#263238" stroke-width="2" stroke-linecap="round" stroke-linejoin="round"/>
<path d="M96.5984 202.728L91.489 203.211L91.98 208.246L97.0895 207.763L96.5984 202.728Z" stroke="#263238" stroke-linecap="round" stroke-linejoin="round"/>
<path d="M105.86 201.848L100.75 202.332L101.241 207.367L106.351 206.883L105.86 201.848Z" stroke="#263238" stroke-linecap="round" stroke-linejoin="round"/>
<path d="M115.121 200.979L110.012 201.463L110.503 206.498L115.612 206.014L115.121 200.979Z" stroke="#263238" stroke-linecap="round" stroke-linejoin="round"/>
<path d="M124.381 200.09L119.272 200.574L119.763 205.609L124.873 205.125L124.381 200.09Z" stroke="#263238" stroke-linecap="round" stroke-linejoin="round"/>
<path d="M86.5673 190.226C86.592 190.476 86.5409 190.728 86.4203 190.95C86.2998 191.171 86.1152 191.353 85.8901 191.471C85.6649 191.589 85.4091 191.639 85.1552 191.615C84.9012 191.59 84.6604 191.491 84.4632 191.332C84.266 191.172 84.1213 190.958 84.0472 190.718C83.9732 190.477 83.9733 190.22 84.0473 189.98C84.1214 189.739 84.2662 189.525 84.4635 189.366C84.6607 189.206 84.9015 189.108 85.1555 189.083C85.3231 189.066 85.4923 189.083 85.6534 189.131C85.8146 189.179 85.9646 189.258 86.0948 189.363C86.225 189.468 86.3328 189.598 86.4122 189.744C86.4915 189.89 86.5408 190.051 86.5573 190.216L86.5673 190.226Z" fill="#263238"/>
<path d="M92.2549 214.006L155.071 208.064" stroke="#263238" stroke-width="2" stroke-linecap="round" stroke-linejoin="round"/>
<path d="M92.6584 218.14L155.475 212.188" stroke="#263238" stroke-width="2" stroke-linecap="round" stroke-linejoin="round"/>
<path d="M93.1324 222.96L146.711 217.882" stroke="#263238" stroke-width="2" stroke-linecap="round" stroke-linejoin="round"/>
<path d="M98.9475 226.822L93.838 227.306L94.3291 232.341L99.4386 231.857L98.9475 226.822Z" stroke="#263238" stroke-linecap="round" stroke-linejoin="round"/>
<path d="M108.209 225.952L103.099 226.436L103.59 231.471L108.7 230.987L108.209 225.952Z" stroke="#263238" stroke-linecap="round" stroke-linejoin="round"/>
<path d="M117.47 225.074L112.361 225.557L112.852 230.592L117.961 230.109L117.47 225.074Z" stroke="#263238" stroke-linecap="round" stroke-linejoin="round"/>
<path d="M126.732 224.215L121.623 224.699L122.114 229.734L127.223 229.25L126.732 224.215Z" stroke="#263238" stroke-linecap="round" stroke-linejoin="round"/>
<path d="M88.9171 214.324C88.9418 214.575 88.8906 214.827 88.7701 215.048C88.6495 215.27 88.465 215.451 88.2398 215.57C88.0146 215.688 87.7589 215.738 87.505 215.713C87.251 215.688 87.0102 215.59 86.813 215.43C86.6158 215.271 86.4711 215.057 86.397 214.816C86.323 214.576 86.323 214.319 86.3971 214.078C86.4712 213.837 86.616 213.624 86.8133 213.464C87.0105 213.305 87.2513 213.206 87.5053 213.182C87.6742 213.165 87.8447 213.182 88.0071 213.23C88.1695 213.279 88.3206 213.358 88.4517 213.464C88.5828 213.571 88.6914 213.701 88.7713 213.849C88.8512 213.996 88.9007 214.158 88.9171 214.324Z" fill="#263238"/>
<path d="M94.6047 238.105L157.421 232.162" stroke="#263238" stroke-width="2" stroke-linecap="round" stroke-linejoin="round"/>
<path d="M95.008 242.239L157.825 236.286" stroke="#263238" stroke-width="2" stroke-linecap="round" stroke-linejoin="round"/>
<path d="M95.4821 247.059L149.061 241.981" stroke="#263238" stroke-width="2" stroke-linecap="round" stroke-linejoin="round"/>
<path d="M101.296 250.926L96.187 251.41L96.6781 256.445L101.788 255.961L101.296 250.926Z" stroke="#263238" stroke-linecap="round" stroke-linejoin="round"/>
<path d="M110.558 250.048L105.448 250.532L105.94 255.567L111.049 255.083L110.558 250.048Z" stroke="#263238" stroke-linecap="round" stroke-linejoin="round"/>
<path d="M119.819 249.178L114.71 249.662L115.201 254.697L120.31 254.213L119.819 249.178Z" stroke="#263238" stroke-linecap="round" stroke-linejoin="round"/>
<path d="M129.08 248.299L123.971 248.783L124.462 253.818L129.572 253.334L129.08 248.299Z" stroke="#263238" stroke-linecap="round" stroke-linejoin="round"/>
<path d="M91.2566 238.423C91.2795 238.671 91.2271 238.921 91.106 239.14C90.9849 239.36 90.8005 239.538 90.5763 239.654C90.352 239.77 90.0978 239.818 89.846 239.792C89.5941 239.766 89.3558 239.666 89.1612 239.507C88.9666 239.347 88.8245 239.134 88.7528 238.894C88.6811 238.655 88.683 238.4 88.7583 238.162C88.8337 237.923 88.979 237.712 89.176 237.555C89.373 237.399 89.6127 237.303 89.865 237.28C90.0325 237.265 90.2014 237.283 90.362 237.332C90.5226 237.381 90.6718 237.461 90.801 237.567C90.9303 237.674 91.037 237.804 91.1152 237.95C91.1934 238.097 91.2414 238.258 91.2566 238.423Z" fill="#263238"/>
<path d="M97.025 262.899L159.842 256.947" stroke="#263238" stroke-width="2" stroke-linecap="round" stroke-linejoin="round"/>
<path d="M97.4284 267.023L160.245 261.081" stroke="#263238" stroke-width="2" stroke-linecap="round" stroke-linejoin="round"/>
<path d="M97.8923 271.843L151.471 266.775" stroke="#263238" stroke-width="2" stroke-linecap="round" stroke-linejoin="round"/>
<path d="M103.713 275.716L98.6032 276.2L99.0943 281.235L104.204 280.752L103.713 275.716Z" stroke="#263238" stroke-linecap="round" stroke-linejoin="round"/>
<path d="M112.984 274.847L107.875 275.331L108.366 280.366L113.475 279.882L112.984 274.847Z" stroke="#263238" stroke-linecap="round" stroke-linejoin="round"/>
<path d="M122.234 273.959L117.125 274.443L117.616 279.478L122.726 278.994L122.234 273.959Z" stroke="#263238" stroke-linecap="round" stroke-linejoin="round"/>
<path d="M131.496 273.079L126.386 273.563L126.877 278.598L131.987 278.114L131.496 273.079Z" stroke="#263238" stroke-linecap="round" stroke-linejoin="round"/>
<path d="M93.6769 263.207C93.7038 263.458 93.6544 263.711 93.5349 263.934C93.4155 264.158 93.2313 264.341 93.006 264.461C92.7806 264.58 92.5242 264.631 92.2693 264.607C92.0144 264.583 91.7726 264.485 91.5746 264.325C91.3766 264.165 91.2314 263.95 91.1574 263.709C91.0835 263.467 91.0841 263.209 91.1591 262.968C91.2342 262.727 91.3804 262.513 91.5792 262.354C91.7779 262.195 92.0201 262.097 92.2751 262.074C92.4427 262.058 92.6119 262.074 92.773 262.122C92.9342 262.17 93.0842 262.249 93.2144 262.354C93.3446 262.46 93.4525 262.589 93.5318 262.735C93.6112 262.882 93.6605 263.042 93.6769 263.207Z" fill="#263238"/>
<path d="M93.5055 205.053L94.3324 206.076L96.5914 202.737" stroke="#263238" stroke-width="2" stroke-linecap="round" stroke-linejoin="round"/>
<path d="M114.35 227.094L115.177 228.118L117.426 224.779" stroke="#263238" stroke-width="2" stroke-linecap="round" stroke-linejoin="round"/>
<path d="M107.483 252.574L108.31 253.598L110.568 250.259" stroke="#263238" stroke-width="2" stroke-linecap="round" stroke-linejoin="round"/>
<path d="M128.287 275.42L129.114 276.444L131.373 273.105" stroke="#263238" stroke-width="2" stroke-linecap="round" stroke-linejoin="round"/>
<path d="M262.633 111.997H210.526C208.686 111.997 206.921 112.718 205.62 114C204.319 115.282 203.588 117.021 203.588 118.834V162.967C203.588 164.78 204.319 166.519 205.62 167.802C206.921 169.084 208.686 169.804 210.526 169.804H233.62L246.851 185.515L243.533 169.804H262.633C264.468 169.796 266.225 169.072 267.52 167.791C268.814 166.51 269.541 164.775 269.541 162.967V118.834C269.541 117.026 268.814 115.292 267.52 114.01C266.225 112.729 264.468 112.005 262.633 111.997Z" fill="white" stroke="#263238" stroke-linecap="round" stroke-linejoin="round"/>
<path d="M240.75 136.205V131.535L237.2 131.236C236.988 130.507 236.694 129.804 236.322 129.14L238.612 126.456L235.254 123.157L232.531 125.413C231.859 125.041 231.145 124.751 230.403 124.548L230.1 121.05H225.361L225.058 124.548C224.316 124.751 223.602 125.041 222.93 125.413L220.207 123.157L216.849 126.456L219.118 129.179C218.742 129.843 218.444 130.546 218.231 131.276L214.681 131.574V136.245L218.231 136.553C218.444 137.283 218.742 137.987 219.118 138.65L216.819 141.333L220.177 144.632L222.9 142.376C223.571 142.748 224.286 143.038 225.028 143.241L225.33 146.739H230.07L230.373 143.241C231.115 143.038 231.829 142.748 232.5 142.376L235.223 144.632L238.581 141.333L236.292 138.65C236.663 137.985 236.958 137.282 237.17 136.553L240.75 136.205ZM227.73 139.306C226.639 139.308 225.572 138.991 224.664 138.395C223.756 137.799 223.047 136.952 222.628 135.959C222.209 134.967 222.097 133.874 222.308 132.819C222.519 131.764 223.043 130.795 223.813 130.033C224.583 129.272 225.565 128.752 226.634 128.54C227.704 128.329 228.813 128.434 229.822 128.844C230.831 129.254 231.694 129.949 232.301 130.842C232.909 131.734 233.235 132.785 233.237 133.86C233.239 134.573 233.099 135.279 232.824 135.939C232.549 136.598 232.145 137.197 231.634 137.702C231.123 138.207 230.517 138.608 229.848 138.882C229.18 139.155 228.464 139.296 227.741 139.296L227.73 139.306Z" fill="#122D9C"/>
<path d="M256.431 146.63V143.311L253.9 143.092C253.753 142.572 253.543 142.072 253.275 141.601L254.908 139.693L252.528 137.348L250.582 138.948C250.103 138.688 249.595 138.481 249.069 138.332L248.858 135.847H245.479L245.267 138.332C244.738 138.481 244.228 138.688 243.745 138.948L241.809 137.348L239.429 139.693L241.052 141.601C240.787 142.072 240.581 142.573 240.437 143.092L237.906 143.311V146.63L240.437 146.848C240.581 147.368 240.787 147.868 241.052 148.339L239.429 150.247L241.809 152.602L243.745 150.992C244.224 151.261 244.735 151.468 245.267 151.608L245.479 154.103H248.858L249.069 151.608C249.598 151.468 250.107 151.261 250.582 150.992L252.528 152.602L254.908 150.247L253.275 148.339C253.547 147.871 253.757 147.37 253.9 146.848L256.431 146.63ZM247.163 148.836C246.388 148.836 245.629 148.609 244.984 148.184C244.339 147.76 243.836 147.156 243.539 146.449C243.242 145.743 243.165 144.966 243.316 144.216C243.467 143.466 243.841 142.777 244.389 142.237C244.938 141.696 245.637 141.328 246.398 141.179C247.159 141.03 247.948 141.106 248.665 141.399C249.381 141.691 249.994 142.187 250.425 142.822C250.856 143.458 251.086 144.206 251.086 144.97C251.086 145.995 250.673 146.979 249.937 147.704C249.202 148.429 248.204 148.836 247.163 148.836Z" fill="#122D9C"/>
<path d="M239.933 154.371V152.036L238.128 151.877C238.024 151.506 237.875 151.149 237.684 150.813L238.844 149.462L237.149 147.782L235.768 148.925C235.427 148.745 235.069 148.598 234.699 148.488L234.538 146.719H232.137L231.986 148.488C231.611 148.594 231.249 148.741 230.907 148.925L229.526 147.782L227.831 149.462L228.991 150.813C228.804 151.151 228.655 151.507 228.547 151.877L226.752 152.036V154.391L228.547 154.55C228.655 154.919 228.804 155.276 228.991 155.613L227.831 157.004L229.526 158.684L230.907 157.541C231.251 157.722 231.613 157.868 231.986 157.978L232.137 159.747H234.538L234.699 157.978C235.069 157.868 235.427 157.721 235.768 157.541L237.149 158.684L238.844 157.004L237.684 155.653C237.875 155.318 238.024 154.961 238.128 154.59L239.933 154.371ZM233.337 155.941C232.785 155.941 232.245 155.78 231.786 155.477C231.326 155.175 230.968 154.745 230.757 154.242C230.545 153.739 230.49 153.185 230.598 152.651C230.706 152.117 230.972 151.627 231.362 151.242C231.753 150.857 232.251 150.595 232.793 150.489C233.334 150.382 233.896 150.437 234.406 150.645C234.917 150.854 235.353 151.206 235.66 151.659C235.967 152.112 236.131 152.644 236.131 153.188C236.128 153.917 235.833 154.614 235.309 155.129C234.786 155.643 234.077 155.931 233.337 155.931V155.941Z" fill="#122D9C"/>
<path d="M235.183 281.592L275.804 429.244H281.874L241.264 281.592H235.183Z" fill="#757575" stroke="#263238" stroke-linecap="round" stroke-linejoin="round"/>
<path d="M326.67 387.387H249.675V393.568H326.67V387.387Z" fill="#999999" stroke="#263238" stroke-linecap="round" stroke-linejoin="round"/>
<path d="M367.744 248.43L317.997 429.293H311.946L361.683 248.43C363.519 241.762 359.313 236.336 352.305 236.336H309.445C302.447 236.336 295.246 241.762 293.411 248.43L243.654 429.293H237.603L287.35 248.43C290.063 238.562 300.672 230.542 311.039 230.542H353.908C364.245 230.542 370.457 238.552 367.744 248.43Z" fill="#757575" stroke="#263238" stroke-linecap="round" stroke-linejoin="round"/>
<path d="M368.531 248.48L356.187 293.378C355.593 295.268 354.418 296.929 352.825 298.134C351.232 299.339 349.299 300.028 347.293 300.105H276.862C276.013 300.171 275.161 300.026 274.383 299.684C273.605 299.342 272.926 298.813 272.409 298.146C271.892 297.479 271.552 296.695 271.421 295.866C271.29 295.036 271.372 294.188 271.659 293.397L284.012 248.5C284.612 246.614 285.788 244.957 287.381 243.757C288.973 242.556 290.903 241.869 292.907 241.792H363.327C363.999 241.744 364.673 241.828 365.312 242.038C365.951 242.247 366.541 242.579 367.05 243.014C367.558 243.448 367.975 243.978 368.276 244.571C368.577 245.164 368.756 245.811 368.803 246.472C368.849 247.153 368.756 247.835 368.531 248.48Z" fill="#122D9C"/>
<mask id="mask2_1_3058" style="mask-type:luminance" maskUnits="userSpaceOnUse" x="271" y="241" width="98" height="60">
<path d="M368.531 248.48L356.187 293.378C355.593 295.268 354.418 296.929 352.825 298.134C351.232 299.339 349.299 300.028 347.293 300.105H276.862C276.013 300.171 275.161 300.026 274.383 299.684C273.605 299.342 272.926 298.813 272.409 298.146C271.892 297.479 271.552 296.695 271.421 295.866C271.29 295.036 271.372 294.188 271.659 293.397L284.012 248.5C284.612 246.614 285.788 244.957 287.381 243.757C288.973 242.556 290.903 241.869 292.907 241.792H363.327C363.999 241.744 364.673 241.828 365.312 242.038C365.951 242.247 366.541 242.579 367.05 243.014C367.558 243.448 367.975 243.978 368.276 244.571C368.577 245.164 368.756 245.811 368.803 246.472C368.849 247.153 368.756 247.835 368.531 248.48Z" fill="white"/>
</mask>
<g mask="url(#mask2_1_3058)">
<path opacity="0.2" d="M368.531 248.48L356.187 293.378C355.593 295.268 354.418 296.929 352.825 298.134C351.232 299.339 349.299 300.028 347.293 300.105H276.862C276.013 300.171 275.161 300.026 274.383 299.684C273.605 299.342 272.926 298.813 272.409 298.146C271.892 297.479 271.552 296.695 271.421 295.866C271.29 295.036 271.372 294.188 271.659 293.397L284.012 248.5C284.612 246.614 285.788 244.957 287.381 243.756C288.973 242.556 290.903 241.869 292.907 241.792H329.322C345.064 257.692 343.057 286.998 342.029 295.842C343.672 295.452 345.184 294.65 346.421 293.515C347.658 292.38 348.576 290.95 349.088 289.363L361.411 244.455C361.663 243.586 361.714 242.673 361.562 241.782H363.327C364.174 241.722 365.022 241.87 365.796 242.214C366.57 242.557 367.245 243.084 367.761 243.748C368.277 244.412 368.618 245.192 368.752 246.018C368.886 246.844 368.81 247.69 368.531 248.48Z" fill="black" fill-opacity="0.7"/>
</g>
<path d="M368.531 248.48L356.187 293.378C355.593 295.268 354.418 296.929 352.825 298.134C351.232 299.339 349.299 300.028 347.293 300.105H276.862C276.013 300.171 275.161 300.026 274.383 299.684C273.605 299.342 272.926 298.813 272.409 298.146C271.892 297.479 271.552 296.695 271.421 295.866C271.29 295.036 271.372 294.188 271.659 293.397L284.012 248.5C284.612 246.614 285.788 244.957 287.381 243.757C288.973 242.556 290.903 241.869 292.907 241.792H363.327C363.999 241.744 364.673 241.828 365.312 242.038C365.951 242.247 366.541 242.579 367.05 243.014C367.558 243.448 367.975 243.978 368.276 244.571C368.577 245.164 368.756 245.811 368.803 246.472C368.849 247.153 368.756 247.835 368.531 248.48Z" stroke="#263238" stroke-linecap="round" stroke-linejoin="round"/>
<path d="M327.124 345.53L350.157 429.244H356.228L333.205 345.53H327.124Z" fill="#757575" stroke="#263238" stroke-linecap="round" stroke-linejoin="round"/>
<path d="M333.225 335.88V344.069H242.545V335.88C242.545 334.283 243.189 332.752 244.335 331.622C245.481 330.493 247.035 329.858 248.656 329.858H327.104C327.907 329.856 328.704 330.01 329.447 330.311C330.19 330.613 330.866 331.056 331.434 331.616C332.003 332.175 332.454 332.84 332.761 333.572C333.069 334.304 333.226 335.088 333.225 335.88Z" fill="#122D9C"/>
<mask id="mask3_1_3058" style="mask-type:luminance" maskUnits="userSpaceOnUse" x="242" y="329" width="92" height="16">
<path d="M333.225 335.88V344.069H242.545V335.88C242.545 334.283 243.189 332.752 244.335 331.622C245.481 330.493 247.035 329.858 248.656 329.858H327.104C327.907 329.856 328.704 330.01 329.447 330.311C330.19 330.613 330.866 331.056 331.434 331.616C332.003 332.175 332.454 332.84 332.761 333.572C333.069 334.304 333.226 335.088 333.225 335.88Z" fill="white"/>
</mask>
<g mask="url(#mask3_1_3058)">
<path opacity="0.2" d="M333.013 334.34C330.078 337.739 324.814 341.197 315.758 344.109H242.545V335.88C242.545 334.283 243.189 332.752 244.335 331.622C245.481 330.493 247.035 329.858 248.656 329.858H327.104C328.452 329.86 329.762 330.3 330.831 331.11C331.899 331.921 332.667 333.056 333.013 334.34Z" fill="black" fill-opacity="0.7"/>
</g>
<path d="M333.225 335.88V344.069H242.545V335.88C242.545 334.283 243.189 332.752 244.335 331.622C245.481 330.493 247.035 329.858 248.656 329.858H327.104C327.907 329.856 328.704 330.01 329.447 330.311C330.19 330.613 330.866 331.056 331.434 331.616C332.003 332.175 332.454 332.84 332.761 333.572C333.069 334.304 333.226 335.088 333.225 335.88Z" stroke="#263238" stroke-linecap="round" stroke-linejoin="round"/>
<path d="M336.301 341.595H240.256C239.303 341.595 238.531 342.355 238.531 343.294V347.577C238.531 348.515 239.303 349.276 240.256 349.276H336.301C337.253 349.276 338.025 348.515 338.025 347.577V343.294C338.025 342.355 337.253 341.595 336.301 341.595Z" fill="#999999" stroke="#263238" stroke-linecap="round" stroke-linejoin="round"/>
<path d="M239.6 341.843C235.254 346.206 256.32 414.755 256.32 414.755C254.021 416.742 250.633 417.657 247.426 418.074C244.478 418.435 241.499 418.478 238.541 418.203C238.541 418.203 208.348 346.037 216.658 328.129C224.967 310.222 276.53 302.093 276.53 302.093L278.728 296.727L305.402 293.03L309.809 325.217C309.809 325.217 305.432 325.635 298.847 326.47C281.189 328.676 247.587 333.893 239.6 341.843Z" fill="#263238"/>
<mask id="mask4_1_3058" style="mask-type:luminance" maskUnits="userSpaceOnUse" x="215" y="293" width="95" height="126">
<path d="M239.6 341.843C235.254 346.206 256.32 414.755 256.32 414.755C254.021 416.742 250.633 417.657 247.426 418.074C244.478 418.435 241.499 418.478 238.541 418.203C238.541 418.203 208.348 346.037 216.658 328.129C224.967 310.222 276.53 302.093 276.53 302.093L278.728 296.727L305.402 293.03L309.809 325.217C309.809 325.217 305.432 325.635 298.847 326.47C281.189 328.676 247.587 333.893 239.6 341.843Z" fill="white"/>
</mask>
<g mask="url(#mask4_1_3058)">
<path opacity="0.3" d="M256.32 414.795C254.021 416.782 250.633 417.696 247.426 418.114C241.567 396.649 226.652 339.369 232.299 332.363C239.267 323.717 273.756 315.856 273.756 315.856C273.898 311.444 285.989 307.469 285.989 307.469L298.837 326.44C281.179 328.676 247.577 333.893 239.59 341.843C235.254 346.245 256.32 414.795 256.32 414.795Z" fill="black"/>
</g>
<path d="M239.6 341.843C235.254 346.206 256.32 414.755 256.32 414.755C254.021 416.742 250.633 417.657 247.426 418.074C244.478 418.435 241.499 418.478 238.541 418.203C238.541 418.203 208.348 346.037 216.658 328.129C224.967 310.222 276.53 302.093 276.53 302.093L278.728 296.727L305.402 293.03L309.809 325.217C309.809 325.217 305.432 325.635 298.847 326.47C281.189 328.676 247.587 333.893 239.6 341.843Z" stroke="#263238" stroke-linecap="round" stroke-linejoin="round"/>
<path d="M224.675 276.961C220.248 276.215 251.762 248.986 251.762 248.986L266.959 259.063C266.959 259.063 241.103 277.01 237.039 277.497C232.974 277.984 224.675 276.961 224.675 276.961Z" fill="white"/>
<mask id="mask5_1_3058" style="mask-type:luminance" maskUnits="userSpaceOnUse" x="224" y="248" width="43" height="30">
<path d="M224.675 276.961C220.248 276.215 251.762 248.986 251.762 248.986L266.959 259.063C266.959 259.063 241.103 277.01 237.039 277.497C232.974 277.984 224.675 276.961 224.675 276.961Z" fill="white"/>
</mask>
<g mask="url(#mask5_1_3058)">
<path opacity="0.2" d="M224.675 276.961C220.248 276.215 251.762 248.986 251.762 248.986L266.959 259.063C266.959 259.063 241.103 277.01 237.039 277.497C232.974 277.984 224.675 276.961 224.675 276.961Z" fill="black" fill-opacity="0.7"/>
</g>
<path d="M224.675 276.961C220.248 276.215 251.762 248.986 251.762 248.986L266.959 259.063C266.959 259.063 241.103 277.01 237.039 277.497C232.974 277.984 224.675 276.961 224.675 276.961Z" stroke="#263238" stroke-linecap="round" stroke-linejoin="round"/>
<path d="M230.211 265.513C230.211 265.513 236.817 267.132 238.844 268.494C240.871 269.855 240.286 274.774 240.286 274.774C240.286 274.774 231.482 272.33 230.211 265.513Z" fill="white" stroke="#263238" stroke-linecap="round" stroke-linejoin="round"/>
<path d="M225.996 253.041L238.279 276.255H239.731L228.063 251.898L225.996 253.041Z" fill="#263238"/>
<path d="M237.069 269.826C237.069 269.826 229.324 264.4 227.428 264.4C225.532 264.4 219.855 271.008 219.855 274.337C219.855 277.666 232.238 279.485 234.659 276.673C235.869 275.271 233.469 271.893 233.469 271.893C234.91 273.404 236.457 274.816 238.097 276.116C239.106 276.673 241.032 275.947 241.032 275.947C241.032 275.947 238.45 271.873 237.069 269.826Z" fill="white" stroke="#263238" stroke-linecap="round" stroke-linejoin="round"/>
<path d="M233.469 277.438C231.683 275.204 229.491 273.316 227.004 271.873" stroke="#263238" stroke-linecap="round" stroke-linejoin="round"/>
<path d="M233.469 271.873C233.469 271.873 230.786 269.567 228.981 269.06" stroke="#263238" stroke-linecap="round" stroke-linejoin="round"/>
<path d="M225.028 274.804C226.903 275.751 228.712 276.82 230.443 278.004" stroke="#263238" stroke-linecap="round" stroke-linejoin="round"/>
<path d="M261.635 237.081C257.672 239.804 239.872 257.841 239.872 257.841C239.872 257.841 248.212 267.192 255.524 268.544L275.34 259.063L261.635 237.081Z" fill="#122D9C" stroke="#263238" stroke-linecap="round" stroke-linejoin="round"/>
<path opacity="0.4" d="M261.635 237.081C257.672 239.804 239.872 257.841 239.872 257.841C239.872 257.841 248.212 267.192 255.524 268.544L275.34 259.063L261.635 237.081Z" fill="white" stroke="#263238" stroke-linecap="round" stroke-linejoin="round"/>
<path d="M252.065 407.52L260.465 429.293C260.465 429.293 261.857 434.888 236.524 433.119L222.567 431.947L252.065 407.52Z" fill="#122D9C"/>
<mask id="mask6_1_3058" style="mask-type:luminance" maskUnits="userSpaceOnUse" x="222" y="407" width="39" height="27">
<path d="M252.065 407.52L260.465 429.293C260.465 429.293 261.857 434.888 236.524 433.119L222.567 431.947L252.065 407.52Z" fill="white"/>
</mask>
<g mask="url(#mask6_1_3058)">
<path opacity="0.3" d="M252.065 407.52L260.465 429.293C260.465 429.293 261.857 434.888 236.524 433.119L222.567 431.947L252.065 407.52Z" fill="black"/>
</g>
<path d="M252.065 407.52L260.465 429.293C260.465 429.293 261.857 434.888 236.524 433.119L222.567 431.947L252.065 407.52Z" stroke="#263238" stroke-linecap="round" stroke-linejoin="round"/>
<path d="M248.878 417.935C248.878 417.935 250.673 426.392 248.878 432.682C248.878 432.682 222.144 436.806 216.164 435.236C210.183 433.666 206.553 430.725 206.371 429.274C206.371 429.274 206.583 425.239 212.573 424.056C218.564 422.874 230.474 422.069 235.183 415.411C239.892 408.753 248.878 417.935 248.878 417.935Z" fill="#122D9C" stroke="#263238" stroke-linecap="round" stroke-linejoin="round"/>
<path d="M284.154 295.852C292.695 283.847 331.964 298.297 331.964 298.297C331.964 298.297 335.706 327.195 320.065 334.907C304.423 342.618 281.874 342.201 275.783 348.451L250.996 420.578C250.996 420.578 242.091 424.245 229.142 418.471C229.142 418.471 244.884 364.004 249.503 344.665C254.071 325.526 283.649 312.537 283.649 312.537C282.125 310.763 280.97 308.71 280.251 306.495" fill="#263238"/>
<path d="M284.154 295.852C292.695 283.847 331.964 298.297 331.964 298.297C331.964 298.297 335.706 327.195 320.065 334.907C304.423 342.618 281.874 342.201 275.783 348.451L250.996 420.578C250.996 420.578 242.091 424.245 229.142 418.471C229.142 418.471 244.884 364.004 249.503 344.665C254.071 325.526 283.649 312.537 283.649 312.537C282.125 310.763 280.97 308.71 280.251 306.495" stroke="#263238" stroke-linecap="round" stroke-linejoin="round"/>
<path d="M323.907 323.478C322.654 324.573 321.337 325.595 319.964 326.539" stroke="white" stroke-linecap="round" stroke-linejoin="round"/>
<path d="M327.124 299.002C330.331 305.859 330.583 314.564 326.115 320.915" stroke="white" stroke-linecap="round" stroke-linejoin="round"/>
<path d="M318.179 300.105C318.179 300.105 317.362 305.392 319.752 307.489C322.142 309.586 329.473 310.649 329.473 310.649" stroke="white" stroke-linecap="round" stroke-linejoin="round"/>
<path d="M285.989 300.344C285.989 300.344 286.322 305.611 284.154 305.362C281.985 305.114 281.874 307.469 281.874 307.469" stroke="white" stroke-linecap="round" stroke-linejoin="round"/>
<path d="M262.159 241.136C261.829 239.808 261.653 238.448 261.635 237.081C261.635 237.081 273.736 227.025 289.317 227.084C307.872 227.144 319.217 232.898 323.756 240.887C330.956 253.528 331.964 298.297 331.964 298.297C331.964 298.297 285.404 305.372 278.728 296.697C277.568 295.186 278.456 284.523 278.456 284.523C278.456 284.523 273.242 271.048 272.143 260.594C270.611 258.513 269.187 256.357 267.877 254.134C266.219 251.398 264.783 248.537 263.581 245.578" fill="#122D9C"/>
<path d="M262.159 241.136C261.829 239.808 261.653 238.448 261.635 237.081C261.635 237.081 273.736 227.025 289.317 227.084C307.872 227.144 319.217 232.898 323.756 240.887C330.956 253.528 331.964 298.297 331.964 298.297C331.964 298.297 285.404 305.372 278.728 296.697C277.568 295.186 278.456 284.523 278.456 284.523C278.456 284.523 273.242 271.048 272.143 260.594C270.611 258.513 269.187 256.357 267.877 254.134C266.219 251.398 264.783 248.537 263.581 245.578" stroke="#263238" stroke-linecap="round" stroke-linejoin="round"/>
<g opacity="0.6">
<path d="M262.159 241.136C261.829 239.808 261.653 238.448 261.635 237.081C261.635 237.081 273.736 227.025 289.317 227.084C307.872 227.144 319.217 232.898 323.756 240.887C330.956 253.528 331.964 298.297 331.964 298.297C331.964 298.297 285.404 305.372 278.728 296.697C277.568 295.186 278.456 284.523 278.456 284.523C278.456 284.523 273.242 271.048 272.143 260.594C270.611 258.513 269.187 256.357 267.877 254.134C266.219 251.398 264.783 248.537 263.581 245.578" fill="white"/>
<path d="M262.159 241.136C261.829 239.808 261.653 238.448 261.635 237.081C261.635 237.081 273.736 227.025 289.317 227.084C307.872 227.144 319.217 232.898 323.756 240.887C330.956 253.528 331.964 298.297 331.964 298.297C331.964 298.297 285.404 305.372 278.728 296.697C277.568 295.186 278.456 284.523 278.456 284.523C278.456 284.523 273.242 271.048 272.143 260.594C270.611 258.513 269.187 256.357 267.877 254.134C266.219 251.398 264.783 248.537 263.581 245.578" stroke="#263238" stroke-linecap="round" stroke-linejoin="round"/>
</g>
<path d="M279.989 251.898C279.989 251.898 287.098 279.077 286.039 285.06C285.786 287.124 286.136 289.217 287.048 291.092C286.119 292.055 285.521 293.282 285.34 294.598C285.159 295.915 285.404 297.254 286.039 298.426" stroke="#263238" stroke-linecap="round" stroke-linejoin="round"/>
<path d="M298.847 274.387C297.577 274.339 296.343 273.955 295.277 273.274L293.169 264.171C297.351 264.546 301.566 264.254 305.654 263.307L307.913 273.244C306.643 273.593 305.353 273.868 304.05 274.069" stroke="#263238" stroke-linecap="round" stroke-linejoin="round"/>
<path d="M274.936 255.436C274.936 255.436 268.886 230.036 284.154 227.084C299.422 224.133 302.558 231.159 301.66 235.919C300.46 242.269 287.804 257.841 287.804 257.841L279.989 251.878L274.936 255.436Z" fill="#122D9C" stroke="#263238" stroke-linecap="round" stroke-linejoin="round"/>
<path opacity="0.4" d="M274.936 255.436C274.936 255.436 268.886 230.036 284.154 227.084C299.422 224.133 302.558 231.159 301.66 235.919C300.46 242.269 287.804 257.841 287.804 257.841L279.989 251.878L274.936 255.436Z" fill="white" stroke="#263238" stroke-linecap="round" stroke-linejoin="round"/>
<path d="M254.908 333.893C254.908 333.893 264.771 322.673 287.038 314.197C287.038 314.197 281.269 312.458 279.978 310.092" stroke="white" stroke-linecap="round" stroke-linejoin="round"/>
<path d="M243.311 368.227L234.296 400.485" stroke="white" stroke-linecap="round" stroke-linejoin="round"/>
<path d="M312.975 275.261C312.975 275.261 317.009 281.969 333.618 281.353C330.527 278.092 326.617 275.692 322.283 274.397C315.496 272.608 312.975 275.261 312.975 275.261Z" fill="#122D9C" stroke="#263238" stroke-linecap="round" stroke-linejoin="round"/>
<path d="M248.535 277.954C248.535 277.954 252.387 272.071 255.917 270.889C259.446 269.706 269.813 269.607 271.417 269.567C273.02 269.527 301.509 276.663 314.881 281.055L313.711 259.063L331.682 260.464C331.682 260.464 330.956 287.296 328.162 294.401C325.369 301.506 321.366 299.777 314.538 296.876C287.683 285.477 271.951 277.537 270.489 277.994C269.027 278.451 248.535 277.954 248.535 277.954Z" fill="white" stroke="#263238" stroke-linecap="round" stroke-linejoin="round"/>
<path d="M309.224 246.283C308.754 248.107 308.604 249.995 308.78 251.868C309.577 258.745 312.975 275.261 312.975 275.261C312.975 275.261 329.725 277.617 333.618 281.353C333.618 281.353 336.381 259.49 330.754 248.39C325.127 237.29 319.308 236.068 319.308 236.068C315.627 235.173 312.249 238.552 310.383 242.895" fill="#122D9C"/>
<path d="M309.224 246.283C308.754 248.107 308.604 249.995 308.78 251.868C309.577 258.745 312.975 275.261 312.975 275.261C312.975 275.261 329.725 277.617 333.618 281.353C333.618 281.353 336.381 259.49 330.754 248.39C325.127 237.29 319.308 236.068 319.308 236.068C315.627 235.173 312.249 238.552 310.383 242.895" stroke="#263238" stroke-linecap="round" stroke-linejoin="round"/>
<g opacity="0.4">
<path d="M309.224 246.283C308.754 248.107 308.604 249.995 308.78 251.868C309.577 258.745 312.975 275.261 312.975 275.261C312.975 275.261 329.725 277.617 333.618 281.353C333.618 281.353 336.381 259.49 330.754 248.39C325.127 237.29 319.308 236.068 319.308 236.068C315.627 235.173 312.249 238.552 310.383 242.895" fill="white"/>
<path d="M309.224 246.283C308.754 248.107 308.604 249.995 308.78 251.868C309.577 258.745 312.975 275.261 312.975 275.261C312.975 275.261 329.725 277.617 333.618 281.353C333.618 281.353 336.381 259.49 330.754 248.39C325.127 237.29 319.308 236.068 319.308 236.068C315.627 235.173 312.249 238.552 310.383 242.895" stroke="#263238" stroke-linecap="round" stroke-linejoin="round"/>
</g>
<path d="M260.011 254.79C262.519 256.812 265.444 258.27 268.583 259.063" stroke="#263238" stroke-linecap="round" stroke-linejoin="round"/>
<path d="M312.975 254.79C312.975 254.79 319.026 266.059 326.67 268.544" stroke="#263238" stroke-linecap="round" stroke-linejoin="round"/>
<path d="M273.766 341.595C273.766 341.595 274.886 342.429 275.34 345.44" stroke="white" stroke-linecap="round" stroke-linejoin="round"/>
<path d="M269.622 345.44C270.596 345.545 271.538 345.848 272.387 346.33C273.236 346.813 273.974 347.464 274.553 348.243" stroke="white" stroke-linecap="round" stroke-linejoin="round"/>
<path d="M236.262 333.893C236.262 333.893 239.489 335.503 238.793 340.064" stroke="white" stroke-linecap="round" stroke-linejoin="round"/>
<path d="M232.864 337.769C232.864 337.769 237.271 340.342 237.583 342.648" stroke="white" stroke-linecap="round" stroke-linejoin="round"/>
<path d="M283.942 309.963C283.942 309.963 293.754 311.315 295.952 309.963" stroke="white" stroke-linecap="round" stroke-linejoin="round"/>
<path d="M279.989 250.805C279.142 248.438 278.798 245.925 278.98 243.421C279.02 242.572 279.111 241.726 279.252 240.887L277.548 238.224L275.36 234.796L277.891 224.858C277.891 224.858 294.026 227.919 295.236 232.351C296.447 236.783 279.989 250.805 279.989 250.805Z" fill="white"/>
<mask id="mask7_1_3058" style="mask-type:luminance" maskUnits="userSpaceOnUse" x="275" y="224" width="21" height="27">
<path d="M279.989 250.805C279.142 248.438 278.798 245.925 278.98 243.421C279.02 242.572 279.111 241.726 279.252 240.887L277.548 238.224L275.36 234.796L277.891 224.858C277.891 224.858 294.026 227.919 295.236 232.351C296.447 236.783 279.989 250.805 279.989 250.805Z" fill="white"/>
</mask>
<g mask="url(#mask7_1_3058)">
<path opacity="0.2" d="M278.96 243.461C279 242.612 279.091 241.766 279.232 240.927L277.528 238.264C280.6 237.796 283.397 236.25 285.404 233.911C285.489 235.969 284.911 238.001 283.754 239.716C282.597 241.431 280.919 242.742 278.96 243.461Z" fill="black" fill-opacity="0.7"/>
</g>
<path d="M279.989 250.805C279.142 248.438 278.798 245.925 278.98 243.421C279.02 242.572 279.111 241.726 279.252 240.887L277.548 238.224L275.36 234.796L277.891 224.858C277.891 224.858 294.026 227.919 295.236 232.351C296.447 236.783 279.989 250.805 279.989 250.805Z" stroke="#263238" stroke-linecap="round" stroke-linejoin="round"/>
<path d="M290.114 225.693C295.156 212.774 291.808 190.782 267.605 194.996C253.406 197.48 251.691 214.394 256.431 221.907C261.171 229.419 256.139 229.658 263.268 235.223C266.163 237.479 268.492 241.305 271.941 241.553C276.046 241.831 281.3 238.006 285.223 233.872" fill="white"/>
<path d="M290.114 225.693C295.156 212.774 291.808 190.782 267.605 194.996C253.406 197.48 251.691 214.394 256.431 221.907C261.171 229.419 256.139 229.658 263.268 235.223C266.163 237.479 268.492 241.305 271.941 241.553C276.046 241.831 281.3 238.006 285.223 233.872" stroke="#263238" stroke-linecap="round" stroke-linejoin="round"/>
<path d="M266.264 221.907C266.264 221.907 269.833 218.707 274.079 220.028" stroke="#263238" stroke-linecap="round" stroke-linejoin="round"/>
<path d="M259.577 221.907C259.099 221.077 258.432 220.367 257.629 219.833C256.826 219.298 255.909 218.954 254.949 218.826" stroke="#263238" stroke-linecap="round" stroke-linejoin="round"/>
<path d="M261.937 226.567C261.937 226.567 261.423 229.141 260.747 231.745C260.072 234.348 264.983 232.927 264.781 232.53" fill="white"/>
<path d="M261.937 226.567C261.937 226.567 261.423 229.141 260.747 231.745C260.072 234.348 264.983 232.927 264.781 232.53" stroke="#263238" stroke-linecap="round" stroke-linejoin="round"/>
<path d="M267.312 235.779C269.395 235.192 271.248 233.997 272.627 232.351" stroke="#263238" stroke-linecap="round" stroke-linejoin="round"/>
<path d="M271.235 225.176C271.307 225.301 271.353 225.439 271.37 225.582C271.388 225.725 271.377 225.87 271.337 226.008C271.298 226.147 271.231 226.276 271.141 226.389C271.051 226.502 270.939 226.596 270.812 226.667C270.553 226.806 270.249 226.839 269.966 226.759C269.683 226.679 269.443 226.492 269.299 226.239C269.207 226.086 269.158 225.911 269.158 225.733C269.086 225.607 269.04 225.469 269.023 225.327C269.005 225.184 269.016 225.039 269.056 224.901C269.095 224.762 269.162 224.633 269.252 224.52C269.342 224.407 269.454 224.312 269.581 224.242C269.84 224.103 270.144 224.07 270.427 224.15C270.71 224.23 270.95 224.416 271.094 224.669C271.186 224.823 271.235 224.998 271.235 225.176Z" fill="#263238"/>
<path d="M260.465 224.958C260.667 225.673 260.525 226.349 260.142 226.448C259.759 226.548 259.285 226.051 259.134 225.325C258.983 224.6 259.083 223.934 259.467 223.835C259.85 223.735 260.243 224.232 260.465 224.958Z" fill="#263238"/>
<path d="M275.188 208.6C275.188 208.6 271.437 218.27 262.159 218.051C262.159 218.051 265.376 215.636 266.264 213.331C266.264 213.331 259.124 220.287 251.994 216.749C244.864 213.211 248.364 196.755 259.305 190.256C270.247 183.756 281.441 185.495 285.233 191.706C285.233 191.706 292.897 191.011 296.275 202.111C299.3 212.049 294.46 227.114 289.73 227.283C282.399 227.551 280.926 219.71 280.926 219.71C277.9 216.677 275.896 212.797 275.188 208.6Z" fill="#263238" stroke="#263238" stroke-linecap="round" stroke-linejoin="round"/>
<path d="M283.226 225.743C283.226 225.743 282.994 216.62 288.268 217.723C293.542 218.826 289.72 229.37 285.757 229.26" fill="white"/>
<path d="M283.226 225.743C283.226 225.743 282.994 216.62 288.268 217.723C293.542 218.826 289.72 229.37 285.757 229.26" stroke="#263238" stroke-linecap="round" stroke-linejoin="round"/>
<path d="M266.939 276.961H185.628C184.72 276.961 183.984 277.686 183.984 278.581V281.373C183.984 282.268 184.72 282.993 185.628 282.993H266.939C267.847 282.993 268.583 282.268 268.583 281.373V278.581C268.583 277.686 267.847 276.961 266.939 276.961Z" fill="#122D9C" stroke="#263238" stroke-linecap="round" stroke-linejoin="round"/>
<path d="M65.6218 398.348H31.3243L34.9144 429.244H62.0317L65.6218 398.348Z" fill="#263238" stroke="#263238" stroke-linecap="round" stroke-linejoin="round"/>
<path d="M69.6858 376.843C69.6858 376.843 54.7103 378.006 54.0851 388.897C54.0851 388.897 69.2522 395.774 69.6858 376.843Z" fill="#122D9C" stroke="#263238" stroke-linecap="round" stroke-linejoin="round"/>
<path d="M40.0574 379.546C40.0574 379.546 31.6873 368.396 18.1639 374.11C18.1639 374.11 26.4231 387.556 40.0574 379.546Z" fill="#122D9C" stroke="#263238" stroke-linecap="round" stroke-linejoin="round"/>
<path d="M19.3136 344.347C19.3136 344.347 16.9034 365.792 36.7195 359.89C36.7195 359.89 30.4268 344.119 19.3136 344.347Z" fill="#122D9C" stroke="#263238" stroke-linecap="round" stroke-linejoin="round"/>
<path d="M43.6475 332.402C43.6475 332.402 27.9762 340.73 39.5028 353.371C39.4927 353.371 50.4748 344.337 43.6475 332.402Z" fill="#122D9C" stroke="#263238" stroke-linecap="round" stroke-linejoin="round"/>
<path d="M62.9191 351.572C62.9191 351.572 45.8762 349.873 45.8762 365.415C45.8762 365.415 62.9191 366.081 62.9191 351.572Z" fill="#122D9C" stroke="#263238" stroke-linecap="round" stroke-linejoin="round"/>
<path d="M46.8544 411.078C46.8544 411.078 54.6195 395.019 47.167 378.662C39.7145 362.304 37.1833 348.521 41.1163 338.812" stroke="#263238" stroke-linecap="round" stroke-linejoin="round"/>
<path d="M57.3222 355.756C57.3222 355.756 47.1066 359.731 43.6476 370.115" stroke="#263238" stroke-linecap="round" stroke-linejoin="round"/>
<path d="M24.6986 352.923C24.6986 352.923 30.5981 360.873 40.5919 359.989" stroke="#263238" stroke-linecap="round" stroke-linejoin="round"/>
<path d="M24.6986 376.396C24.6986 376.396 41.0356 381.027 47.53 379.516" stroke="#263238" stroke-linecap="round" stroke-linejoin="round"/>
<path d="M64.8251 381.742C64.8251 381.742 57.5138 389.692 50.1723 389.523" stroke="#263238" stroke-linecap="round" stroke-linejoin="round"/>
<path d="M67.0941 397.662H29.8519V402.025H67.0941V397.662Z" fill="#263238" stroke="#263238" stroke-linecap="round" stroke-linejoin="round"/>
<path d="M337.349 369.668C328.643 375.273 321.337 382.747 315.98 391.531C307.096 406.139 300.057 426.69 310.988 429.294L321.386 428.906L341.393 422.138L339.296 418.163C339.296 418.163 321.779 427.306 318.784 427.306C315.789 427.306 311.886 428.041 310.242 426.859C308.598 425.676 316 399.113 331.843 390.259C347.686 381.404 337.349 369.668 337.349 369.668Z" fill="#122D9C"/>
<mask id="mask8_1_3058" style="mask-type:luminance" maskUnits="userSpaceOnUse" x="305" y="369" width="37" height="61">
<path d="M337.349 369.668C328.643 375.273 321.337 382.747 315.98 391.531C307.096 406.139 300.057 426.69 310.988 429.294L321.386 428.906L341.393 422.138L339.296 418.163C339.296 418.163 321.779 427.306 318.784 427.306C315.789 427.306 311.886 428.041 310.242 426.859C308.598 425.676 316 399.113 331.843 390.259C347.686 381.404 337.349 369.668 337.349 369.668Z" fill="white"/>
</mask>
<g mask="url(#mask8_1_3058)">
<path opacity="0.5" d="M337.349 369.668C328.643 375.273 321.337 382.747 315.98 391.531C307.096 406.139 300.057 426.69 310.988 429.294L321.386 428.906L341.393 422.138L339.296 418.163C339.296 418.163 321.779 427.306 318.784 427.306C315.789 427.306 311.886 428.041 310.242 426.859C308.598 425.676 316 399.113 331.843 390.259C347.686 381.404 337.349 369.668 337.349 369.668Z" fill="black" fill-opacity="0.7"/>
</g>
<path d="M337.349 369.668C328.643 375.273 321.337 382.747 315.98 391.531C307.096 406.139 300.057 426.69 310.988 429.294L321.386 428.906L341.393 422.138L339.296 418.163C339.296 418.163 321.779 427.306 318.784 427.306C315.789 427.306 311.886 428.041 310.242 426.859C308.598 425.676 316 399.113 331.843 390.259C347.686 381.404 337.349 369.668 337.349 369.668Z" stroke="#263238" stroke-linecap="round" stroke-linejoin="round"/>
<path d="M348.735 360.088C348.735 360.088 348.735 355.805 355.32 355.219C361.905 354.633 362.843 360.883 362.843 360.883H360.574C360.574 360.883 360.625 357.137 355.784 356.849C350.943 356.561 351.125 360.883 351.125 360.883L348.735 360.088Z" fill="#122D9C" stroke="#263238" stroke-linecap="round" stroke-linejoin="round"/>
<path d="M338.993 429.294C325.067 429.294 327.709 367.75 329.312 364.699C330.916 361.649 371.324 360.128 375.308 361.42C379.291 362.712 395.265 424.027 386.451 428.926L338.993 429.294Z" fill="#122D9C"/>
<mask id="mask9_1_3058" style="mask-type:luminance" maskUnits="userSpaceOnUse" x="327" y="360" width="63" height="70">
<path d="M338.993 429.294C325.067 429.294 327.709 367.75 329.312 364.699C330.916 361.649 371.324 360.128 375.308 361.42C379.291 362.712 395.265 424.027 386.451 428.926L338.993 429.294Z" fill="white"/>
</mask>
<g mask="url(#mask9_1_3058)">
<path opacity="0.2" d="M338.993 429.294C325.067 429.294 327.709 367.75 329.312 364.699C330.916 361.649 371.324 360.128 375.308 361.42C379.291 362.712 395.265 424.027 386.451 428.926L338.993 429.294Z" fill="black" fill-opacity="0.7"/>
</g>
<path d="M338.993 429.294C325.067 429.294 327.709 367.75 329.312 364.699C330.916 361.649 371.324 360.128 375.308 361.42C379.291 362.712 395.265 424.027 386.451 428.926L338.993 429.294Z" stroke="#263238" stroke-linecap="round" stroke-linejoin="round"/>
<path d="M329.312 364.63C334.354 365.693 337.259 385.837 344.046 390.964C350.832 396.092 382.831 394.989 386.451 390.964C390.071 386.94 382.992 364.342 377.849 360.883C372.706 357.425 369.045 360.784 354.574 359.204C333.124 356.849 329.312 364.63 329.312 364.63Z" fill="#122D9C" stroke="#263238" stroke-linecap="round" stroke-linejoin="round"/>
<path d="M366.04 376.207L371.97 380.977C372.051 381.045 372.117 381.128 372.166 381.221C372.214 381.314 372.243 381.416 372.252 381.52C372.26 381.624 372.248 381.729 372.215 381.829C372.182 381.928 372.129 382.021 372.06 382.1L367.442 387.009C367.294 387.154 367.095 387.235 366.887 387.235C366.679 387.235 366.48 387.154 366.332 387.009L360.433 381.593C360.289 381.447 360.208 381.251 360.208 381.047C360.208 380.843 360.289 380.647 360.433 380.5L365.001 376.316C365.131 376.176 365.308 376.087 365.5 376.067C365.691 376.047 365.883 376.097 366.04 376.207Z" fill="#122D9C"/>
<mask id="mask10_1_3058" style="mask-type:luminance" maskUnits="userSpaceOnUse" x="360" y="376" width="13" height="12">
<path d="M366.04 376.207L371.97 380.977C372.051 381.045 372.117 381.128 372.166 381.221C372.214 381.314 372.243 381.416 372.252 381.52C372.26 381.624 372.248 381.729 372.215 381.829C372.182 381.928 372.129 382.021 372.06 382.1L367.442 387.009C367.294 387.154 367.095 387.235 366.887 387.235C366.679 387.235 366.48 387.154 366.332 387.009L360.433 381.593C360.289 381.447 360.208 381.251 360.208 381.047C360.208 380.843 360.289 380.647 360.433 380.5L365.001 376.316C365.131 376.176 365.308 376.087 365.5 376.067C365.691 376.047 365.883 376.097 366.04 376.207Z" fill="white"/>
</mask>
<g mask="url(#mask10_1_3058)">
<path opacity="0.2" d="M366.04 376.207L371.97 380.977C372.051 381.045 372.117 381.128 372.166 381.221C372.214 381.314 372.243 381.416 372.252 381.52C372.26 381.624 372.248 381.729 372.215 381.829C372.182 381.928 372.129 382.021 372.06 382.1L367.442 387.009C367.294 387.154 367.095 387.235 366.887 387.235C366.679 387.235 366.48 387.154 366.332 387.009L360.433 381.593C360.289 381.447 360.208 381.251 360.208 381.047C360.208 380.843 360.289 380.647 360.433 380.5L365.001 376.316C365.131 376.176 365.308 376.087 365.5 376.067C365.691 376.047 365.883 376.097 366.04 376.207Z" fill="black" fill-opacity="0.7"/>
</g>
<path d="M366.04 376.207L371.97 380.977C372.051 381.045 372.117 381.128 372.166 381.221C372.214 381.314 372.243 381.416 372.252 381.52C372.26 381.624 372.248 381.729 372.215 381.829C372.182 381.928 372.129 382.021 372.06 382.1L367.442 387.009C367.294 387.154 367.095 387.235 366.887 387.235C366.679 387.235 366.48 387.154 366.332 387.009L360.433 381.593C360.289 381.447 360.208 381.251 360.208 381.047C360.208 380.843 360.289 380.647 360.433 380.5L365.001 376.316C365.131 376.176 365.308 376.087 365.5 376.067C365.691 376.047 365.883 376.097 366.04 376.207Z" stroke="#263238" stroke-linecap="round" stroke-linejoin="round"/>
<path d="M346.486 401.26C346.486 401.26 373.291 403.436 386.451 400.077C388.212 401.443 389.521 403.293 390.213 405.394C391.413 408.931 393.914 421.035 386.451 424.136C378.988 427.236 352.164 426.64 348.584 423.142C345.004 419.644 346.486 401.26 346.486 401.26Z" fill="#122D9C"/>
<mask id="mask11_1_3058" style="mask-type:luminance" maskUnits="userSpaceOnUse" x="346" y="400" width="46" height="27">
<path d="M346.486 401.26C346.486 401.26 373.291 403.436 386.451 400.077C388.212 401.443 389.521 403.293 390.213 405.394C391.413 408.931 393.914 421.035 386.451 424.136C378.988 427.236 352.164 426.64 348.584 423.142C345.004 419.644 346.486 401.26 346.486 401.26Z" fill="white"/>
</mask>
<g mask="url(#mask11_1_3058)">
<path opacity="0.4" d="M346.486 401.26C346.486 401.26 373.291 403.436 386.451 400.077C388.212 401.443 389.521 403.293 390.213 405.394C391.413 408.931 393.914 421.035 386.451 424.136C378.988 427.236 352.164 426.64 348.584 423.142C345.004 419.644 346.486 401.26 346.486 401.26Z" fill="black" fill-opacity="0.7"/>
</g>
<path d="M346.486 401.26C346.486 401.26 373.291 403.436 386.451 400.077C388.212 401.443 389.521 403.293 390.213 405.394C391.413 408.931 393.914 421.035 386.451 424.136C378.988 427.236 352.164 426.64 348.584 423.142C345.004 419.644 346.486 401.26 346.486 401.26Z" stroke="#263238" stroke-linecap="round" stroke-linejoin="round"/>
<path d="M346.486 401.26C346.486 401.26 349.632 409.617 351.276 410.899C352.92 412.181 387.742 412.181 391.614 409.08C395.487 405.98 390.182 400.375 386.461 400.077C386.451 400.077 362.057 402.879 346.486 401.26Z" fill="#122D9C" stroke="#263238" stroke-linecap="round" stroke-linejoin="round"/>
<path d="M335.252 399.481C335.252 399.481 336.149 417.04 337.944 421.025C336.612 421.711 335.131 422.069 333.628 422.069C332.125 422.069 330.644 421.711 329.312 421.025C324.774 418.66 325.52 403.535 326.418 403.575C327.315 403.615 335.252 399.481 335.252 399.481Z" fill="#122D9C"/>
<mask id="mask12_1_3058" style="mask-type:luminance" maskUnits="userSpaceOnUse" x="325" y="399" width="13" height="24">
<path d="M335.252 399.481C335.252 399.481 336.149 417.04 337.944 421.025C336.612 421.711 335.131 422.069 333.628 422.069C332.125 422.069 330.644 421.711 329.312 421.025C324.774 418.66 325.52 403.535 326.418 403.575C327.315 403.615 335.252 399.481 335.252 399.481Z" fill="white"/>
</mask>
<g mask="url(#mask12_1_3058)">
<path opacity="0.4" d="M335.252 399.481C335.252 399.481 336.149 417.04 337.944 421.025C336.612 421.711 335.131 422.069 333.628 422.069C332.125 422.069 330.644 421.711 329.312 421.025C324.774 418.66 325.52 403.535 326.418 403.575C327.315 403.615 335.252 399.481 335.252 399.481Z" fill="black" fill-opacity="0.7"/>
</g>
<path d="M335.252 399.481C335.252 399.481 336.149 417.04 337.944 421.025C336.612 421.711 335.131 422.069 333.628 422.069C332.125 422.069 330.644 421.711 329.312 421.025C324.774 418.66 325.52 403.535 326.418 403.575C327.315 403.615 335.252 399.481 335.252 399.481Z" stroke="#263238" stroke-linecap="round" stroke-linejoin="round"/>
<path d="M335.252 399.481L328.505 400.812C328.505 400.812 322.071 405.682 324.915 407.302C327.759 408.921 335.09 404.946 335.252 399.481Z" fill="#122D9C" stroke="#263238" stroke-linecap="round" stroke-linejoin="round"/>
</svg>
